<?xml version="1.0" encoding="utf-8"?>
<!-- Generator: Adobe Illustrator 16.0.0, SVG Export Plug-In . SVG Version: 6.00 Build 0)  -->
<!DOCTYPE svg PUBLIC "-//W3C//DTD SVG 1.1//EN" "http://www.w3.org/Graphics/SVG/1.1/DTD/svg11.dtd">
<svg version="1.1" id="Layer_1" xmlns="http://www.w3.org/2000/svg" xmlns:xlink="http://www.w3.org/1999/xlink" x="0px" y="0px"
	 width="237.5px" height="237.5px" viewBox="0 0 237.5 237.5" enable-background="new 0 0 237.5 237.5" xml:space="preserve">
<g>
	<path fill="#000000" d="M228.358,189.611c-47.967-0.163-95.414-0.323-142.984-0.485c0.091-27.587,0.185-54.831,0.28-82.25
		c47.777,0.166,95.126,0.323,142.983,0.487C228.542,135.146,228.449,162.346,228.358,189.611z M116.8,141.62
		c-0.061,9.216-0.031,18.437-0.299,27.646c-0.099,3.413,0.763,4.81,4.462,4.8c24.012-0.053,48.024,0.049,72.031,0.223
		c3.203,0.021,4.595-0.853,4.574-4.282c-0.078-14.467,0.007-28.937,0.131-43.403c0.023-2.821-0.927-3.892-3.868-3.892
		c-24.967,0.02-49.93-0.101-74.896-0.164c-0.46-0.001-0.919,0.154-2.068,0.362C116.846,129.309,116.845,135.463,116.8,141.62z"/>
	<path fill="#000000" d="M83.042,188.545c0.042-13.293,0.088-26.104,0.134-39.28c-16.418-0.056-32.641-0.108-49.325-0.163
		c-0.044,13.066-0.088,25.99-0.133,39.275C50.019,188.434,66.266,188.49,83.042,188.545z"/>
	<path fill="#000000" d="M8.013,136.494c-0.076,21.587-0.146,42.489-0.22,64.186c7.598-3.634,14.857-7,21.971-10.639
		c0.891-0.459,1.444-2.373,1.458-3.618c0.132-11.74,0.147-23.478,0.079-35.217c-0.005-1.276-0.402-3.255-1.252-3.704
		C22.967,143.764,15.732,140.307,8.013,136.494z"/>
	<path fill="#000000" d="M111.229,104.365c4.89,0.018,8.993,0.155,13.08-0.042c0.987-0.047,2.022-1.105,2.844-1.901
		c0.531-0.518,0.853-1.369,1.022-2.123c2.325-10.239,8.51-13.462,18.882-12.295c9.742,1.096,19.698,0.394,29.554,0.229
		c3.011-0.05,4.835,0.801,5.618,3.736c0.2,0.756,0.654,1.444,0.991,2.166c5.502,11.882,5.502,11.882,19.693,10.088
		c-3.81-8.328-7.48-16.544-11.397-24.638c-0.425-0.875-2.265-1.495-3.454-1.505c-20.354-0.176-40.709-0.27-61.066-0.264
		c-1.396-0.001-3.587,0.519-4.059,1.467C118.955,87.351,115.282,95.569,111.229,104.365z"/>
	<path fill="#000000" d="M62.928,103.755c7.032,0.075,13.878,2.031,18.508-0.342c4.491-2.3,6.866-8.938,9.871-13.859
		c4.289-7.014,8.311-14.196,12.629-21.625c-5.092-2.979-9.84-5.763-15.053-8.81C80.274,73.926,71.795,88.506,62.928,103.755z"/>
	<path fill="#000000" d="M61.063,106.11c-0.025,7.365-0.05,14.42-0.077,21.826c7.348,0.026,14.42,0.049,21.93,0.073
		c0.023-7.175,0.048-14.361,0.076-21.827C75.71,106.159,68.51,106.133,61.063,106.11z"/>
	<path fill="#000000" d="M117.137,53.166c-7.247-4.234-14.208-8.305-21.885-12.795c-1.766,5.37-3.544,10.352-4.933,15.44
		c-0.22,0.805,1.069,2.463,2.066,3.088c4.021,2.529,8.203,4.811,12.789,7.452C109.069,62.059,112.97,57.757,117.137,53.166z"/>
	<path fill="#000000" d="M194.746,171.253c-25.365-0.085-50.378-0.169-75.728-0.258c0.05-15.302,0.101-30.286,0.152-45.585
		c25.307,0.088,50.2,0.174,75.729,0.26C194.848,141.014,194.796,156.023,194.746,171.253z M189.052,146.985
		c1.151-11.791,1.164-12.138-10.53-12.422c-14.232-0.353-28.474-0.049-42.714-0.03c-0.788,0.004-1.584,0.038-2.374-0.021
		c-8.806-0.683-11.176,2.096-8.85,10.832c0.268,1.003,2.181,2.217,3.351,2.242c13.427,0.246,26.86,0.262,40.289,0.383
		c4.883,0.042,9.77,0.246,14.655,0.275c2.004,0.011,4.015-0.252,5.764-0.377C188.926,147.262,189.037,147.125,189.052,146.985z"/>
	<path fill="#000000" d="M127.279,145.367c19.743,0.064,39.166,0.132,58.989,0.197c0.009-2.779,0.021-5.346,0.029-8.592
		c-12.871-0.042-25.663-0.082-38.458-0.133c-4.433-0.016-8.871-0.072-13.306-0.079C126.472,136.748,126.475,136.755,127.279,145.367
		z"/>
</g>
</svg>
