<?xml version="1.0" encoding="utf-8"?>
<!-- Generator: Adobe Illustrator 16.0.0, SVG Export Plug-In . SVG Version: 6.00 Build 0)  -->
<!DOCTYPE svg PUBLIC "-//W3C//DTD SVG 1.1//EN" "http://www.w3.org/Graphics/SVG/1.1/DTD/svg11.dtd">
<svg version="1.1" id="Layer_1" xmlns="http://www.w3.org/2000/svg" xmlns:xlink="http://www.w3.org/1999/xlink" x="0px" y="0px"
	 width="237.5px" height="237.5px" viewBox="0 0 237.5 237.5" enable-background="new 0 0 237.5 237.5" xml:space="preserve">
<g>
	<path fill="#000000" d="M83.293,78.465c-0.24-0.148-0.493-0.302-0.756-0.462c-1.459-0.885-3.379-2.05-4.364-2.969l4.984-5.076
		l0.045,0.117c0.556,1.427,1.377,3.533,2.032,5.087L83.293,78.465z"/>
	<path fill="#000000" d="M19.441,118.826c2.199-4.451,6.023-5.889,10.967-5.281c12.991,1.599,26.016,2.978,40.097,4.563
		c1.47-13.054,3.074-27.301,4.625-41.075l1.449-1.472c0.933,1.182,3.272,2.605,5.164,3.752c0.513,0.313,0.991,0.604,1.399,0.866
		l0.669,0.428l3.138-5.335l-0.153-0.357c-0.671-1.561-1.571-3.869-2.166-5.397l-0.602-1.543l15.792-16.077
		c0.609-0.704,1.228-1.385,1.892-2.003c0.245-0.225,0.493-0.449,0.737-0.673l0.052-0.055v0.004
		c7.626-7.067,15.27-14.106,22.942-21.123c4.122-3.766,9.131-4.527,13.025-0.421c12.1,12.756,23.909,25.797,35.504,39.015
		c3.567,4.067,2.554,8.862-1.391,12.373c-3.744,3.337-8.065,3.137-12.076,0.173c-1.393-1.028-2.491-2.463-3.676-3.753
		c-8.304-9.028-16.592-18.067-25.075-27.311c-10.157,9.362-19.794,18.347-29.555,27.195c-0.931,0.842-1.841,1.541-2.739,2.122
		c4.597,5.975,10.05,13.072,16.002,20.829c-15.015-7.958-25.79-19.009-27.555-21.525l-0.207-0.295l0.119-0.203l-0.345-0.119
		l-0.02-0.027l-0.128-0.325l-0.045,0.077l-0.055-0.078l-2.903,4.987l-0.017-0.002l-0.019,0.062l-0.247,0.426l0.215,0.381
		c0.265,0.468,1.343,1.917,3.115,3.979c0.89,1.049,1.955,2.237,3.18,3.528c7.083,7.511,19.582,18.732,34.96,25.158l0.143,0.064
		l1.164,0.464c0.246,0.1,0.494,0.201,0.746,0.297l0.242,0.098c0.311,0.124,0.625,0.252,0.943,0.379
		c28.843,37.623,63.277,82.633,75.259,98.343c3.276,4.293,2.049,8.955-2.266,12.146c-4.078,3.019-8.24,2.533-11.809-1.203
		c-1.055-1.108-1.946-2.378-2.89-3.59c-15.214-19.6-30.322-39.279-45.711-58.741l-17.15-21.769
		c-10.86,9.453-21.469,19.188-31.243,27.966c13.226,2.497,28.991,5.384,44.72,8.483c6.697,1.317,9.928,5.314,9.164,10.607
		c-0.801,5.527-5.613,8.836-12.395,7.626c-23.136-4.135-46.262-8.332-69.271-13.099c-3.137-0.65-7.044-4.225-7.902-7.22
		c-0.782-2.713,1.152-7.698,3.547-9.59c17.023-13.465,34.375-26.516,51.761-39.516L91.118,98.82
		c0.147,0.989,0.116,2.083-0.004,3.002c-1.197,9.589-2.499,19.166-3.93,28.72c-0.846,5.623-4.403,8.781-10.008,8.113
		c-17.012-2.029-33.994-4.314-50.942-6.787C19.994,130.954,16.702,124.37,19.441,118.826z"/>
	<path fill="#000000" d="M193.948,118.169l-0.674,0.208l-0.039,0.25c-2.225,0.936-18.493,4.732-37.964,2.54h-0.002
		c-8.11-0.913-15.488-2.758-21.933-5.482c-1.098-0.335-3.247-1.2-4.975-1.896l-0.239-0.096c-0.256-0.097-0.491-0.193-0.729-0.289
		l-1.18-0.475c-21.667-9.012-38.056-28.346-40.392-31.697l1.551-2.678c3.367,4.053,14.251,14.453,28.838,21.849
		c6.9,3.469,13.763,5.986,19.333,7.089c3.964,1.267,8.404,2.189,13.114,2.719c22.303,2.513,44.933-4.647,46.804-6.243
		c0-0.001,0.003-0.001,0.003-0.003c0.195-0.034,0.41-0.038,0.641-0.012c0.884,0.1,2.827,0.74,6.094,3.854
		C200.748,110.486,196.457,117.442,193.948,118.169z"/>
	<path fill="#000000" d="M61.183,71.902c-11.486-1.161-19.641-11.461-18.302-23.119c1.307-11.382,11.252-19.511,22.464-18.367
		C76.617,31.568,84.7,41.458,83.689,52.854C82.643,64.586,72.627,73.06,61.183,71.902z"/>
</g>
</svg>
