<?xml version="1.0" encoding="UTF-8"?>
<svg width="237px" height="237px" viewBox="0 0 517 572" version="1.1" xmlns="http://www.w3.org/2000/svg" xmlns:xlink="http://www.w3.org/1999/xlink">
    <!-- Generator: Sketch 3.6.1 (26313) - http://www.bohemiancoding.com/sketch -->
    <title>BI</title>
    <desc>Created with Sketch.</desc>
    <defs></defs>
    <g id="Page-1" stroke="none" stroke-width="1" fill="none" fill-rule="evenodd">
        <g id="BI" fill="#000000">
            <path d="M325.898,534.834 C324.103,540.498 318.371,544 312.421,544 L312.216,544 C304.362,544 297.181,548.441 293.665,555.465 L293.522,555.75 C288.79,565.217 279.114,571.199 268.526,571.199 L248.67,571.199 C238.082,571.199 228.406,565.217 223.673,555.75 L223.53,555.465 C220.016,548.441 212.835,544 204.981,544 L204.777,544 C198.834,544 193.101,540.498 191.306,534.834 C188.321,525.443 195.25,516.801 204.199,516.801 L313,516.801 C321.947,516.801 328.877,525.443 325.898,534.834 L325.898,534.834 Z M114.351,383.418 L75.884,421.885 C70.573,427.197 70.573,435.805 75.884,441.115 C78.536,443.775 82.017,445.101 85.499,445.101 C88.98,445.101 92.462,443.775 95.114,441.115 L133.581,402.648 C138.892,397.337 138.892,388.728 133.581,383.418 C128.277,378.107 119.655,378.107 114.351,383.418 L114.351,383.418 Z M81.799,258.4 C81.799,250.893 75.706,244.8 68.199,244.8 L13.799,244.8 C6.292,244.8 0.199,250.893 0.199,258.4 C0.199,265.907 6.292,272 13.799,272 L68.199,272 C75.707,272 81.799,265.907 81.799,258.4 L81.799,258.4 Z M258.599,81.6 C266.105,81.6 272.199,75.507 272.199,68 L272.199,13.6 C272.199,6.093 266.105,0 258.599,0 C251.092,0 244.999,6.093 244.999,13.6 L244.999,68 C244.999,75.507 251.092,81.6 258.599,81.6 L258.599,81.6 Z M393.232,137.367 C396.714,137.367 400.189,136.041 402.847,133.383 L441.314,94.915 C446.625,89.604 446.625,80.995 441.314,75.685 C436.003,70.375 427.396,70.374 422.084,75.685 L383.617,114.153 C378.306,119.464 378.306,128.072 383.617,133.383 C386.27,136.041 389.75,137.367 393.232,137.367 L393.232,137.367 Z M114.351,133.382 C117.003,136.041 120.485,137.366 123.966,137.366 C127.448,137.366 130.929,136.04 133.581,133.382 C138.892,128.071 138.892,119.462 133.581,114.152 L95.114,75.684 C89.81,70.373 81.187,70.373 75.884,75.684 C70.573,80.995 70.573,89.603 75.884,94.914 L114.351,133.382 L114.351,133.382 Z M503.398,244.8 L449,244.8 C441.492,244.8 435.398,250.893 435.398,258.4 C435.398,265.907 441.492,272 449,272 L503.398,272 C510.906,272 517,265.907 517,258.4 C517,250.893 510.906,244.8 503.398,244.8 L503.398,244.8 Z M402.848,383.418 C397.537,378.107 388.928,378.107 383.618,383.418 C378.308,388.729 378.307,397.338 383.618,402.648 L422.085,441.115 C424.745,443.775 428.22,445.101 431.7,445.101 C435.182,445.101 438.657,443.775 441.315,441.115 C446.626,435.804 446.626,427.197 441.315,421.885 L402.848,383.418 L402.848,383.418 Z M313,482.801 L204.199,482.801 C196.692,482.801 190.599,488.893 190.599,496.401 C190.599,503.909 196.692,510.001 204.199,510.001 L313,510.001 C320.506,510.001 326.6,503.909 326.6,496.401 C326.6,488.893 320.506,482.801 313,482.801 L313,482.801 Z M326.6,462.4 C326.6,469.908 320.506,476 313,476 L204.199,476 C196.692,476 190.599,469.908 190.599,462.4 C190.599,455.158 196.277,449.289 203.417,448.88 C194.951,372.353 115.799,355.306 115.799,265.199 C115.799,186.332 179.733,122.399 258.599,122.399 C337.465,122.399 401.398,186.333 401.398,265.199 C401.398,355.305 322.248,372.352 313.781,448.88 C320.922,449.289 326.6,455.158 326.6,462.4 L326.6,462.4 Z M312.91,230.5 C308.279,216.648 294.137,200.764 269.017,197.316 L269.017,180.9 C269.017,175.27 264.447,170.7 258.816,170.7 C253.185,170.7 248.616,175.269 248.616,180.9 L248.616,197.614 C227.754,201.654 211.644,217.844 209.509,238.421 C207.524,257.617 218.696,282.866 256.721,290.829 C277.399,295.159 289.321,306.788 287.825,321.169 C286.614,332.858 276.264,344.685 258.809,344.685 C238.089,344.685 227.148,333.933 224.068,324.726 C222.279,319.388 216.506,316.492 211.161,318.287 C205.816,320.082 202.933,325.855 204.722,331.193 C209.36,345.045 223.504,360.929 248.616,364.371 L248.616,380.801 C248.616,386.43 253.186,391 258.816,391 C264.446,391 269.017,386.43 269.017,380.801 L269.017,364.086 C289.878,360.047 305.988,343.856 308.122,323.279 C310.108,304.082 298.936,278.834 260.909,270.871 C240.231,266.539 228.311,254.912 229.807,240.53 C231.017,228.841 241.367,217.015 258.823,217.015 C279.542,217.015 290.49,227.766 293.564,236.973 C295.353,242.311 301.105,245.208 306.47,243.413 C311.816,241.625 314.699,235.851 312.91,230.5 L312.91,230.5 Z" id="Shape"></path>
        </g>
    </g>
</svg>