<?xml version="1.0" encoding="UTF-8"?>
<svg width="237px" height="237px" viewBox="0 0 454 512" version="1.1" xmlns="http://www.w3.org/2000/svg" xmlns:xlink="http://www.w3.org/1999/xlink">
    <!-- Generator: Sketch 3.6.1 (26313) - http://www.bohemiancoding.com/sketch -->
    <title>biotic</title>
    <desc>Created with Sketch.</desc>
    <defs></defs>
    <g id="Page-1" stroke="none" stroke-width="1" fill="none" fill-rule="evenodd">
        <g id="biotic" fill="#000000">
            <g id="Page-1">
                <g id="biotic">
                    <path d="M197.857,451.612 C193.984,447.698 189.075,445.188 183.744,444.33 L184.135,376.879 C184.219,363.052 178.915,350.02 169.198,340.184 L103.749,273.928 C97.246,267.346 88.569,263.691 79.315,263.638 C74.839,263.591 70.568,264.416 66.556,265.976 L66.951,203.524 C67.003,194.809 63.66,186.597 57.536,180.397 C51.412,174.197 43.24,170.755 34.527,170.701 L34.321,170.701 C25.685,170.701 17.551,174.04 11.401,180.115 C5.201,186.239 1.758,194.41 1.704,203.123 L0.89,333.158 C0.841,341.38 3.995,349.132 9.776,354.986 L72.698,418.683 L72.559,443.861 C60.283,445.713 50.8,456.304 50.721,469.093 L50.531,500.188 C50.494,506.226 55.359,511.15 61.396,511.188 L61.465,511.188 C67.471,511.188 72.359,506.337 72.396,500.324 L72.586,469.229 C72.599,467.135 74.308,465.438 76.4,465.438 L76.416,465.438 L179.624,465.863 C181,465.868 181.902,466.574 182.318,466.993 C182.733,467.413 183.431,468.323 183.422,469.701 L183.23,501.003 C183.193,507.04 188.058,511.965 194.094,512.003 L194.163,512.003 C200.169,512.003 205.056,507.151 205.094,501.139 L205.286,469.836 C205.328,462.966 202.69,456.495 197.857,451.612 L197.857,451.612 L197.857,451.612 Z M161.882,443.925 L94.424,443.647 L94.586,414.279 C94.602,411.383 93.468,408.598 91.431,406.537 L25.331,339.622 C23.654,337.924 22.738,335.676 22.753,333.292 L23.567,203.258 C23.585,200.384 24.72,197.689 26.765,195.67 C28.81,193.65 31.511,192.496 34.393,192.565 C37.266,192.583 39.962,193.718 41.981,195.763 C44,197.808 45.103,200.517 45.086,203.388 L44.49,297.681 C44.489,297.877 44.503,298.071 44.513,298.266 C44.513,307.062 47.83,315.862 54.482,322.596 L95.8,364.423 C97.938,366.588 100.758,367.673 103.578,367.673 C106.354,367.673 109.13,366.622 111.26,364.518 C115.555,360.275 115.598,353.353 111.354,349.058 L70.036,307.231 C65.095,302.228 65.142,294.138 70.138,289.193 C70.139,289.192 70.139,289.192 70.14,289.191 C72.546,286.81 75.73,285.503 79.113,285.503 L79.188,285.503 C82.599,285.523 85.796,286.87 88.193,289.295 L153.642,355.55 C159.255,361.231 162.319,368.759 162.27,376.751 L161.882,443.925 L161.882,443.925 L161.882,443.925 Z" id="Shape"></path>
                    <path d="M453.112,333.155 L452.298,203.123 C452.244,194.409 448.801,186.238 442.601,180.114 C436.401,173.99 428.195,170.684 419.475,170.7 C410.761,170.754 402.589,174.196 396.465,180.396 C390.341,186.596 386.998,194.809 387.05,203.525 L387.445,265.975 C383.434,264.415 379.166,263.627 374.687,263.637 C365.434,263.691 356.756,267.345 350.253,273.928 L284.804,340.183 C275.088,350.019 269.783,363.051 269.867,376.874 L270.258,444.329 C264.926,445.187 260.018,447.697 256.147,451.608 C251.315,456.49 248.676,462.962 248.718,469.832 L248.91,501.134 C248.947,507.149 253.834,511.998 259.841,511.998 L259.91,511.998 C265.947,511.961 270.811,507.036 270.774,500.998 L270.582,469.697 C270.573,468.318 271.27,467.408 271.686,466.988 C272.101,466.568 273.004,465.863 274.381,465.858 L377.59,465.433 L377.606,465.433 C379.697,465.433 381.406,467.131 381.419,469.224 L381.609,500.319 C381.646,506.334 386.533,511.184 392.54,511.183 L392.609,511.183 C398.647,511.146 403.512,506.222 403.474,500.183 L403.284,469.088 C403.205,456.297 393.722,445.706 381.446,443.856 L381.307,418.678 L444.228,354.983 C450.008,349.132 453.162,341.381 453.112,333.155 L453.112,333.155 L453.112,333.155 Z M428.672,339.62 L362.571,406.534 C360.535,408.595 359.401,411.38 359.416,414.276 L359.578,443.644 L292.12,443.922 L291.731,376.744 C291.683,368.758 294.747,361.231 300.359,355.549 L365.807,289.295 C368.204,286.868 371.402,285.521 374.813,285.502 L374.888,285.502 C378.27,285.502 381.454,286.809 383.861,289.192 C386.015,291.323 387.308,294.107 387.577,297.106 C387.904,300.722 386.708,304.452 383.964,307.231 L342.646,349.058 C338.403,353.353 338.446,360.275 342.74,364.518 C344.871,366.622 347.647,367.673 350.422,367.673 C353.242,367.673 356.062,366.589 358.2,364.423 L399.518,322.596 C406.268,315.765 409.583,306.807 409.486,297.884 C409.501,297.832 409.511,297.766 409.51,297.681 L408.914,203.391 C408.896,200.518 409.998,197.809 412.019,195.764 C414.039,193.719 416.734,192.584 419.608,192.566 L419.676,192.566 C422.524,192.566 425.207,193.667 427.236,195.671 C429.28,197.691 430.416,200.386 430.434,203.26 L431.248,333.291 C431.263,335.674 430.347,337.923 428.672,339.62 L428.672,339.62 L428.672,339.62 Z" id="Shape"></path>
                    <path d="M318.224,188.076 C312.699,154.458 294.545,120.832 267.107,93.394 C256.561,82.848 245.026,73.604 232.827,65.92 C229.264,63.677 224.732,63.678 221.171,65.922 C208.957,73.621 197.424,82.865 186.895,93.394 C159.455,120.834 141.302,154.457 135.779,188.076 C130.035,223.028 138.495,253.896 159.598,274.994 C169.778,285.174 182.268,292.438 196.722,296.586 C202.752,298.318 209.073,299.472 215.604,300.065 L215.604,330.586 C215.604,336.623 220.498,341.518 226.536,341.518 C232.574,341.518 237.468,336.623 237.468,330.586 L237.468,299.969 C243.841,299.366 250.31,298.282 256.804,296.715 C256.953,296.679 257.101,296.64 257.249,296.598 C271.724,292.449 284.228,285.182 294.414,274.995 C315.513,253.893 323.969,223.027 318.224,188.076 L318.224,188.076 L318.224,188.076 Z M278.953,259.532 C271.472,267.014 262.216,272.39 251.443,275.514 C246.739,276.641 242.069,277.459 237.467,277.982 L237.467,259.449 L275.188,221.728 C279.457,217.459 279.457,210.537 275.188,206.267 C270.919,201.999 263.997,201.999 259.727,206.267 L237.467,228.527 L237.467,193.811 L254.727,176.551 C258.996,172.282 258.996,165.36 254.727,161.09 C250.458,156.822 243.536,156.822 239.266,161.09 L237.467,162.889 L237.467,135.222 C237.467,129.185 232.573,124.29 226.535,124.29 C220.497,124.29 215.603,129.185 215.603,135.222 L215.603,162.889 L213.804,161.09 C209.535,156.822 202.613,156.822 198.343,161.09 C194.074,165.359 194.074,172.281 198.343,176.551 L215.603,193.811 L215.603,228.527 L193.343,206.267 C189.074,201.999 182.152,201.999 177.882,206.267 C173.613,210.536 173.613,217.458 177.882,221.728 L215.603,259.449 L215.603,278.078 C211.155,277.574 206.856,276.748 202.756,275.569 C191.905,272.456 182.586,267.061 175.058,259.531 C159.071,243.549 152.784,219.431 157.355,191.621 C162.143,162.479 178.126,133.085 202.357,108.854 C210.04,101.171 218.308,94.265 227.005,88.263 C235.689,94.255 243.956,101.161 251.649,108.854 C275.88,133.084 291.862,162.478 296.652,191.621 C301.221,219.431 294.936,243.549 278.953,259.532 L278.953,259.532 L278.953,259.532 Z" id="Shape"></path>
                    <path d="M226.536,0 C220.498,0 215.604,4.895 215.604,10.932 L215.604,32.251 C215.604,38.288 220.498,43.183 226.536,43.183 C232.574,43.183 237.468,38.288 237.468,32.251 L237.468,10.932 C237.468,4.895 232.574,0 226.536,0 L226.536,0 L226.536,0 Z" id="Shape"></path>
                    <path d="M108.445,128.476 L87.126,128.476 C81.088,128.476 76.194,133.371 76.194,139.408 C76.194,145.445 81.088,150.34 87.126,150.34 L108.445,150.34 C114.483,150.34 119.377,145.445 119.377,139.408 C119.377,133.371 114.483,128.476 108.445,128.476 L108.445,128.476 L108.445,128.476 Z" id="Shape"></path>
                    <path d="M365.944,128.476 L344.626,128.476 C338.588,128.476 333.694,133.371 333.694,139.408 C333.694,145.445 338.588,150.34 344.626,150.34 L365.944,150.34 C371.982,150.34 376.876,145.445 376.876,139.408 C376.876,133.371 371.982,128.476 365.944,128.476 L365.944,128.476 L365.944,128.476 Z" id="Shape"></path>
                    <path d="M158.492,55.906 L143.418,40.832 C139.149,36.564 132.227,36.564 127.957,40.832 C123.688,45.101 123.688,52.023 127.957,56.293 L143.032,71.367 C145.167,73.501 147.965,74.569 150.762,74.569 C153.559,74.569 156.358,73.501 158.492,71.367 C162.761,67.098 162.761,60.176 158.492,55.906 L158.492,55.906 L158.492,55.906 Z" id="Shape"></path>
                    <path d="M325.113,40.831 C320.844,36.563 313.922,36.563 309.652,40.831 L294.578,55.906 C290.309,60.175 290.309,67.097 294.578,71.367 C296.713,73.5 299.512,74.568 302.309,74.568 C305.106,74.568 307.905,73.5 310.039,71.366 L325.113,56.292 C329.382,52.024 329.382,45.101 325.113,40.831 L325.113,40.831 L325.113,40.831 Z" id="Shape"></path>
                </g>
            </g>
        </g>
    </g>
</svg>