<?xml version="1.0" encoding="UTF-8"?>
<svg width="238px" height="237px" viewBox="0 0 514 537" version="1.1" xmlns="http://www.w3.org/2000/svg" xmlns:xlink="http://www.w3.org/1999/xlink">
    <!-- Generator: Sketch 3.6.1 (26313) - http://www.bohemiancoding.com/sketch -->
  
    <defs></defs>
    <g id="Page-1" stroke="none" stroke-width="1" fill="none" fill-rule="evenodd">
        <g id="cosmic" transform="translate(0.000000, 1.000000)" fill="#FFFFFF">
            <g id="Group">
                <path d="M496.239,0.396 C495.933,0.492 488.733,2.672 477.239,8.027 C472.458,10.246 470.373,15.935 472.601,20.726 C474.216,24.206 477.668,26.253 481.274,26.253 C482.631,26.253 484,25.966 485.299,25.354 C495.416,20.659 501.68,18.727 501.747,18.708 C506.786,17.178 509.655,11.842 508.125,6.793 C506.605,1.745 501.279,-1.076 496.239,0.396 L496.239,0.396 Z" id="Shape"></path>
                <path d="M383.889,78.025 C375.244,87.53 367.011,97.743 359.418,108.357 C356.349,112.651 357.344,118.628 361.637,121.707 C363.321,122.912 365.261,123.495 367.193,123.495 C370.176,123.495 373.113,122.099 374.977,119.498 C382.139,109.477 389.904,99.847 398.041,90.906 C401.599,86.995 401.312,80.951 397.4,77.394 C393.481,73.846 387.437,74.133 383.889,78.025 L383.889,78.025 Z" id="Shape"></path>
                <path d="M347.59,535.495 C349.531,535.495 351.482,534.902 353.174,533.687 C357.458,530.598 358.424,524.622 355.335,520.337 C351.835,515.48 348.47,510.335 345.343,505.019 C342.655,500.467 336.794,498.965 332.242,501.643 C327.69,504.331 326.18,510.202 328.866,514.744 C332.299,520.549 335.99,526.19 339.825,531.516 C341.7,534.118 344.616,535.495 347.59,535.495 L347.59,535.495 Z" id="Shape"></path>
                <path d="M160.069,1.974 C159.83,2.165 153.978,6.669 144.989,15.362 C141.193,19.034 141.088,25.087 144.76,28.883 C146.635,30.824 149.13,31.8 151.635,31.8 C154.026,31.8 156.426,30.901 158.281,29.113 C166.409,21.262 171.678,17.179 171.726,17.131 C175.905,13.908 176.689,7.903 173.467,3.734 C170.244,-0.445 164.248,-1.239 160.069,1.974 L160.069,1.974 Z" id="Shape"></path>
                <path d="M53.868,362.079 C54.404,362.079 54.958,362.031 55.503,361.935 C60.705,361.037 64.195,356.092 63.296,350.89 C61.278,339.196 59.729,327.472 58.706,316.026 C58.237,310.766 53.676,306.827 48.321,307.362 C43.062,307.841 39.179,312.488 39.657,317.747 C40.738,329.71 42.353,341.95 44.457,354.151 C45.262,358.799 49.307,362.079 53.868,362.079 L53.868,362.079 Z" id="Shape"></path>
                <path d="M105.869,86.947 C108.958,86.947 111.989,85.455 113.825,82.701 C120.289,73.033 127.308,63.614 134.681,54.702 C138.047,50.628 137.473,44.604 133.409,41.238 C129.345,37.863 123.311,38.455 119.945,42.51 C112.161,51.92 104.75,61.864 97.932,72.077 C94.996,76.466 96.173,82.404 100.562,85.34 C102.197,86.421 104.042,86.947 105.869,86.947 L105.869,86.947 Z" id="Shape"></path>
                <path d="M91.936,99.722 C87.279,97.226 81.484,99.014 79.008,103.671 C73.242,114.515 67.992,125.751 63.402,137.063 C61.413,141.959 63.775,147.534 68.671,149.523 C69.847,150.002 71.062,150.221 72.257,150.221 C76.034,150.221 79.62,147.974 81.122,144.254 C85.473,133.544 90.436,122.92 95.887,112.65 C98.372,107.984 96.603,102.199 91.936,99.722 L91.936,99.722 Z" id="Shape"></path>
                <path d="M121.016,506.367 C117.287,510.106 117.287,516.159 121.026,519.888 C125.836,524.699 130.866,529.231 135.972,533.362 C137.741,534.787 139.864,535.495 141.977,535.495 C144.769,535.495 147.523,534.28 149.417,531.947 C152.745,527.844 152.104,521.82 148.001,518.502 C143.411,514.782 138.878,510.709 134.537,506.367 C130.817,502.629 124.755,502.629 121.016,506.367 L121.016,506.367 Z" id="Shape"></path>
                <path d="M430.057,78.599 C449.01,78.599 464.434,63.184 464.434,44.222 C464.434,25.279 449.01,9.854 430.057,9.854 C411.104,9.854 395.68,25.278 395.68,44.222 C395.68,63.174 411.104,78.599 430.057,78.599 L430.057,78.599 Z" id="Shape"></path>
                <path d="M84.611,512.172 C115.249,512.172 140.179,487.252 140.179,456.605 C140.179,425.957 115.259,401.046 84.611,401.046 C81.494,401.046 78.453,401.371 75.479,401.859 C73.787,396.408 72.189,390.842 70.717,385.191 C69.379,380.085 64.138,377.044 59.051,378.354 C53.935,379.693 50.884,384.923 52.214,390.03 C53.821,396.188 55.57,402.26 57.426,408.199 C40.519,417.732 29.054,435.834 29.054,456.595 C29.043,487.242 53.973,512.172 84.611,512.172 L84.611,512.172 Z" id="Shape"></path>
                <path d="M512.534,357.843 C520.901,327.176 469.283,294.673 422.474,272.077 C418.964,221.911 393.108,178.517 354.992,151.149 C355.097,150.967 355.183,150.766 355.288,150.585 C357.87,145.976 356.216,140.143 351.606,137.57 C347.112,135.074 341.528,136.614 338.86,140.936 C315.461,128.007 288.609,120.549 259.93,120.549 C206.361,120.549 156.732,146.597 126.141,190.489 C111.147,189.141 97.1,188.462 84.325,188.462 C78.099,188.462 72.228,188.615 66.682,188.93 C67.658,185.01 68.614,181.079 69.723,177.225 C71.186,172.147 68.26,166.85 63.182,165.387 C58.133,163.934 52.816,166.85 51.344,171.928 C49.518,178.249 47.902,184.675 46.429,191.129 C20.17,195.26 4.765,204.287 0.94,218.296 C-4.147,236.942 13.544,256.374 37.526,273.357 C37.536,276.378 37.574,279.677 37.651,282.585 C37.795,287.777 42.04,293.247 47.204,293.247 L47.462,293.247 C51.612,293.247 55.045,289.603 56.269,285.492 C70.632,294.059 85.674,301.642 98.65,307.686 C110.393,387.341 178.889,446.83 259.931,446.83 C273.577,446.83 286.888,445.014 299.731,441.801 C299.741,441.849 299.721,441.905 299.741,441.953 C303.03,454.997 307.027,467.523 311.627,479.199 C313.109,482.957 316.714,485.253 320.529,485.253 C321.696,485.253 322.882,485.042 324.029,484.593 C328.944,482.652 331.354,477.106 329.413,472.181 C325.12,461.28 321.371,449.546 318.282,437.297 C318.178,436.866 317.89,436.541 317.727,436.14 C344.54,425.965 368.485,408.848 387.084,385.64 C402.173,387.008 416.307,387.697 429.149,387.697 L429.149,387.697 C479.075,387.678 507.14,377.637 512.534,357.843 L512.534,357.843 Z M328.456,164.154 C328.456,169.423 325.578,173.984 321.342,176.48 C319.209,177.732 316.761,178.498 314.113,178.498 C306.195,178.498 299.769,172.072 299.769,164.154 C299.769,156.236 306.195,149.81 314.113,149.81 C321.103,149.81 326.908,154.821 328.179,161.438 C328.35,162.318 328.456,163.227 328.456,164.154 L328.456,164.154 Z M282.966,164.365 C282.966,177.332 272.457,187.841 259.49,187.841 C246.523,187.841 236.014,177.332 236.014,164.365 C236.014,151.398 246.523,140.889 259.49,140.889 C272.458,140.889 282.966,151.398 282.966,164.365 L282.966,164.365 Z" id="Shape"></path>
            </g>
        </g>
    </g>
</svg>