<?xml version="1.0" encoding="UTF-8"?>
<svg width="237px" height="237px" viewBox="0 0 514 366" version="1.1" xmlns="http://www.w3.org/2000/svg" xmlns:xlink="http://www.w3.org/1999/xlink">
    <!-- Generator: Sketch 3.6.1 (26313) - http://www.bohemiancoding.com/sketch -->
    <title>Shape</title>
    <desc>Created with Sketch.</desc>
    <defs></defs>
    <g id="Page-1" stroke="none" stroke-width="1" fill="none" fill-rule="evenodd">
        <g transform="translate(0.000000, -120.000000)" id="cosmic" fill="#000000">
            <g>
                <g id="Group">
                    <path d="M512.534,357.843 C520.901,327.176 469.283,294.673 422.474,272.077 C418.964,221.911 393.108,178.517 354.992,151.149 C355.097,150.967 355.183,150.766 355.288,150.585 C357.87,145.976 356.216,140.143 351.606,137.57 C347.112,135.074 341.528,136.614 338.86,140.936 C315.461,128.007 288.609,120.549 259.93,120.549 C206.361,120.549 156.732,146.597 126.141,190.489 C111.147,189.141 97.1,188.462 84.325,188.462 C78.099,188.462 72.228,188.615 66.682,188.93 C67.658,185.01 68.614,181.079 69.723,177.225 C71.186,172.147 68.26,166.85 63.182,165.387 C58.133,163.934 52.816,166.85 51.344,171.928 C49.518,178.249 47.902,184.675 46.429,191.129 C20.17,195.26 4.765,204.287 0.94,218.296 C-4.147,236.942 13.544,256.374 37.526,273.357 C37.536,276.378 37.574,279.677 37.651,282.585 C37.795,287.777 42.04,293.247 47.204,293.247 L47.462,293.247 C51.612,293.247 55.045,289.603 56.269,285.492 C70.632,294.059 85.674,301.642 98.65,307.686 C110.393,387.341 178.889,446.83 259.931,446.83 C273.577,446.83 286.888,445.014 299.731,441.801 C299.741,441.849 299.721,441.905 299.741,441.953 C303.03,454.997 307.027,467.523 311.627,479.199 C313.109,482.957 316.714,485.253 320.529,485.253 C321.696,485.253 322.882,485.042 324.029,484.593 C328.944,482.652 331.354,477.106 329.413,472.181 C325.12,461.28 321.371,449.546 318.282,437.297 C318.178,436.866 317.89,436.541 317.727,436.14 C344.54,425.965 368.485,408.848 387.084,385.64 C402.173,387.008 416.307,387.697 429.149,387.697 L429.149,387.697 C479.075,387.678 507.14,377.637 512.534,357.843 L512.534,357.843 L512.534,357.843 Z M328.456,164.154 C328.456,169.423 325.578,173.984 321.342,176.48 C319.209,177.732 316.761,178.498 314.113,178.498 C306.195,178.498 299.769,172.072 299.769,164.154 C299.769,156.236 306.195,149.81 314.113,149.81 C321.103,149.81 326.908,154.821 328.179,161.438 C328.35,162.318 328.456,163.227 328.456,164.154 L328.456,164.154 L328.456,164.154 Z M282.966,164.365 C282.966,177.332 272.457,187.841 259.49,187.841 C246.523,187.841 236.014,177.332 236.014,164.365 C236.014,151.398 246.523,140.889 259.49,140.889 C272.458,140.889 282.966,151.398 282.966,164.365 L282.966,164.365 L282.966,164.365 Z" id="Shape"></path>
                </g>
            </g>
        </g>
    </g>
</svg>