<?xml version="1.0" encoding="UTF-8"?>
<svg width="237px" height="237px" viewBox="0 0 264 112" version="1.1" xmlns="http://www.w3.org/2000/svg" xmlns:xlink="http://www.w3.org/1999/xlink">
    <!-- Generator: Sketch 3.6.1 (26313) - http://www.bohemiancoding.com/sketch -->
    <title>Group</title>
    <desc>Created with Sketch.</desc>
    <defs></defs>
    <g id="Page-1" stroke="none" stroke-width="1" fill="none" fill-rule="evenodd">
        <g id="Group" fill="#FFFFFF">
            <path d="M53.933,70.801 C53.454,68.888 52.273,68.226 50.697,68.62 L47.912,69.316 L49.396,75.252 L52.181,74.556 C53.757,74.163 54.489,73.023 54.01,71.11 L53.933,70.801 L53.933,70.801 Z" id="Shape"></path>
            <path d="M72.249,66.222 C71.764,64.281 70.589,63.648 69.014,64.041 C67.438,64.436 66.728,65.54 67.213,67.481 L69.076,74.937 C69.561,76.878 70.709,77.519 72.284,77.125 C73.86,76.731 74.598,75.62 74.113,73.679 L72.249,66.222 L72.249,66.222 Z" id="Shape"></path>
            <path d="M264,38 L264,8 C264,2.5 259.801,-0.908 254.465,0.426 L132.25,31 L9.826,0.426 C4.49,-0.908 -7.10542736e-15,2.5 -7.10542736e-15,8 L-7.10542736e-15,38 C-7.10542736e-15,43.5 4.532,49.092 9.868,50.426 L32.248,56 L9.826,61.574 C4.49,62.908 -1.0658141e-14,68.5 -1.0658141e-14,74 L-1.0658141e-14,104 C-1.0658141e-14,109.5 4.532,112.908 9.868,111.574 L132.25,81 L254.424,111.574 C259.76,112.908 264,109.5 264,104 L264,74 C264,68.5 259.801,62.908 254.465,61.574 L232.252,56 L254.424,50.426 C259.76,49.092 264,43.5 264,38 L264,38 Z M201.614,26.825 L211.631,24.321 C212.56,24.089 213.199,24.975 213.425,25.876 C213.685,26.917 213.432,27.937 212.588,28.147 L205.047,30.033 L206.235,34.788 L210.456,33.733 C211.3,33.522 211.982,34.218 212.208,35.119 C212.398,35.879 212.229,36.878 211.3,37.109 L207.079,38.165 L208.275,42.948 L215.816,41.062 C216.66,40.851 217.363,41.632 217.624,42.673 C217.849,43.573 217.701,44.656 216.773,44.889 L206.756,47.393 C205.799,47.632 204.731,47.421 204.505,46.521 L200.038,28.654 C199.814,27.754 200.657,27.064 201.614,26.825 L201.614,26.825 Z M169.554,36.245 C169.322,35.316 170.321,34.648 171.418,34.374 C172.515,34.1 173.711,34.22 173.943,35.148 L178.417,53.043 C178.642,53.943 177.657,54.668 176.56,54.942 C175.463,55.216 174.253,55.041 174.028,54.14 L169.554,36.245 L169.554,36.245 Z M168.513,56.955 L159.621,59.178 C158.664,59.417 157.596,59.206 157.37,58.306 L152.896,40.411 C152.664,39.482 153.663,38.814 154.76,38.54 C155.857,38.266 157.053,38.386 157.285,39.314 L161.14,54.733 L167.555,53.129 C168.4,52.917 169.061,53.769 169.3,54.726 C169.54,55.682 169.356,56.744 168.513,56.955 L168.513,56.955 Z M132.661,53.181 L136.882,52.126 C137.726,51.915 138.408,52.611 138.634,53.512 C138.823,54.272 138.655,55.271 137.726,55.502 L133.505,56.558 L134.701,61.341 L142.242,59.455 C143.086,59.244 143.789,60.025 144.05,61.066 C144.275,61.966 144.127,63.049 143.198,63.282 L133.181,65.786 C132.224,66.025 131.156,65.814 130.93,64.914 L126.463,47.047 C126.238,46.147 127.082,45.457 128.039,45.218 L138.056,42.714 C138.985,42.482 139.624,43.368 139.85,44.269 C140.11,45.31 139.857,46.33 139.013,46.54 L131.472,48.426 L132.661,53.181 L132.661,53.181 Z M113.328,55.952 L115.191,63.408 C115.67,65.321 116.824,65.99 118.456,65.582 C120.707,65.019 120.418,63.268 120.228,62.149 C120.052,61.086 120.938,60.566 122.064,60.285 C123.584,59.905 124.385,60.123 124.807,61.811 C125.743,65.553 123.239,68.452 119.215,69.457 C115.528,70.378 112.012,69.345 110.802,64.505 L108.938,57.048 C107.728,52.209 110.344,49.642 114.031,48.72 C118.055,47.714 121.599,48.98 122.493,52.554 C122.915,54.242 122.31,54.812 120.819,55.185 C119.637,55.48 118.603,55.41 118.294,54.411 C118.083,53.686 117.548,51.907 115.156,52.505 C113.553,52.906 112.85,54.039 113.328,55.952 L113.328,55.952 Z M104.599,72.933 C103.502,73.207 102.292,73.032 102.067,72.131 L97.593,54.235 C97.361,53.306 98.36,52.638 99.457,52.364 C100.554,52.089 101.75,52.21 101.982,53.138 L106.456,71.033 C106.681,71.934 105.696,72.658 104.599,72.933 L104.599,72.933 Z M53.024,77.934 L50.239,78.63 L51.759,84.707 C51.984,85.607 50.999,86.332 49.902,86.606 C48.805,86.881 47.595,86.705 47.37,85.804 L42.896,67.908 C42.72,67.205 43.212,66.424 44.198,66.178 L50.022,64.722 C53.736,63.793 57.098,64.807 58.28,69.533 L58.315,69.674 C59.496,74.402 56.908,76.963 53.024,77.934 L53.024,77.934 Z M73.241,80.952 C69.358,81.923 65.897,80.875 64.687,76.035 L62.823,68.578 C61.613,63.739 64.174,61.185 68.056,60.215 C71.939,59.244 75.428,60.285 76.638,65.125 L78.502,72.581 C79.713,77.421 77.124,79.981 73.241,80.952 L73.241,80.952 Z M97.328,72.719 C97.567,73.675 97.384,74.738 96.54,74.948 L87.648,77.171 C86.691,77.41 85.623,77.199 85.397,76.299 L80.923,58.404 C80.691,57.475 81.69,56.807 82.787,56.533 C83.884,56.259 85.08,56.379 85.312,57.307 L89.167,72.726 L95.582,71.122 C96.428,70.91 97.089,71.762 97.328,72.719 L97.328,72.719 Z M198.649,47.985 C198.875,48.885 197.889,49.61 196.793,49.884 C195.779,50.137 194.83,50.165 194.049,49.315 L186.27,40.916 L188.662,50.482 C188.887,51.382 187.902,52.107 186.805,52.381 C185.708,52.655 184.498,52.48 184.273,51.579 L179.806,33.712 C179.574,32.783 180.566,32.087 181.663,31.813 C183.238,31.419 183.864,31.413 185.447,33.199 L192.178,40.754 L189.786,31.188 C189.555,30.259 190.554,29.591 191.65,29.317 C192.748,29.043 193.943,29.163 194.175,30.09 L198.649,47.985 L198.649,47.985 Z" id="Shape"></path>
        </g>
    </g>
</svg>