<?xml version="1.0" encoding="utf-8"?>
<!-- Generator: Adobe Illustrator 16.0.0, SVG Export Plug-In . SVG Version: 6.00 Build 0)  -->
<!DOCTYPE svg PUBLIC "-//W3C//DTD SVG 1.1//EN" "http://www.w3.org/Graphics/SVG/1.1/DTD/svg11.dtd">
<svg version="1.1" id="Layer_1" xmlns="http://www.w3.org/2000/svg" xmlns:xlink="http://www.w3.org/1999/xlink" x="0px" y="0px"
	 width="237.5px" height="237.5px" viewBox="0 0 237.5 237.5" enable-background="new 0 0 237.5 237.5" xml:space="preserve">
<g>
	<path fill-rule="evenodd" clip-rule="evenodd" fill="#FFFFFF" d="M96.896,161.676c-1.407-3.385-4.296-6.164-6.599-9.158
		c-10.128-13.167-8.389-28.307,4.003-34.87c0.324-0.172,0.455-0.709,0.128-0.167c-15.586-11.242-30.963-22.526-46.541-33.526
		c-8.189-5.783-16.569-9.896-25.087-12.411c10.713,10.276,14.824,10.27,19.811,14.825l24.77,26.962
		c16.615,14.067,16.506,45.895,31.448,60.547C98.135,168.988,98.284,165.012,96.896,161.676z"/>
	<path fill-rule="evenodd" clip-rule="evenodd" fill="#FFFFFF" d="M221.001,147.493c-4.174-4.958-10.281-9.616-16.446-6.222
		c-10.726,5.906-19.374,2.582-28.073-3.235c-8.188-5.474-16.81-6.226-25.961-3.337c-3.352,1.059-6.605,2.436-9.975,3.43
		c-14.188,4.184-24.727-1.764-29.256-15.63c-1.236-3.786-4.171-7.282-7.063-10.177c-2.214-2.215-5.718-3.079-8.404-4.902
		c-2.455-1.667-4.582-3.816-6.73-5.647c0.388,10.16,9.771,13.202,16.325,18.375c-5.027,1.228-9.178,2.241-13.328,3.254
		c0.018,0.61,0.034,1.222,0.052,1.833c11.646-1.683,17.523,4.457,22.28,13.998c2.184,4.381,7.373,8.709,12.064,10.063
		c7.074,2.041,14.963,1.047,22.396,2.104c6.613,0.941,13.316,2.288,19.529,4.644c4.607,1.748,4.712,5.553,0.334,8.563
		c-1.369,0.941-2.911,1.633-4.375,2.439c3.59,0.656,6.852-0.053,10.147-0.465c3.099-0.387,6.233-0.461,9.353-0.672
		c0.131,0.982,0.264,1.963,0.395,2.945c-3.586,1.436-7.173,2.873-10.76,4.311c0.18,0.693,0.359,1.387,0.539,2.08
		c7.304-1.221,14.609-2.443,21.912-3.664c0.139,0.599,0.274,1.197,0.412,1.796c-2.979,1.99-5.959,3.979-8.938,5.97
		c0.207,0.502,0.415,1.004,0.622,1.508c6.219-2.191,12.438-4.381,18.995-6.689c0.614,1.572,1.218,3.117,1.866,4.781
		c3.791-6.389,7.18-12.439,10.909-18.275C222.578,156.359,224.65,151.828,221.001,147.493z"/>
	<path fill-rule="evenodd" clip-rule="evenodd" fill="#FFFFFF" d="M137.482,154.896c-2.461-0.682-5.247-1.001-8.363-0.988
		c-9.342,0.035-16.276-3.955-19.266-13.709c-1.056-3.447-3.212-7.9-6.063-9.14c-4.128-1.793-9.968-2.645-13.942-1.058
		c-5.426,2.168-4.092,8.173-2.097,12.611c1.404,3.123,4.39,5.492,6.233,8.469c2.888,4.662,6.926,9.336,7.651,14.41
		c0.712,4.963-2.112,10.432-3.339,15.5c3.452-2.121,7.538-4.962,11.921-7.231c4.361-2.257,9.103-5.13,13.761,1.423
		c-3.818,4.885-7.658,9.798-12.498,15.99c4.368-2.31,7.277-4.717,10.509-5.283c2.639-0.464,5.664,1.271,8.52,2.031
		c-0.736,2.631-0.967,5.579-2.36,7.796c-1.219,1.938-3.745,3.052-4.271,3.45c3.918,1.264,9.205,1.461,11.938,4.205
		c3.994,4.009,0.845,8.826-2.085,12.879c-1.117,1.546-1.734,3.453-3.051,6.166c4.123-2.621,6.968-4.43,9.965-6.334
		c0.311,4.679,0.566,8.48,0.733,11.006c5.433-4.48,10.178-8.84,15.38-12.561c5.456-3.9,10.05-7.918,9.008-15.82
		c-9.413,7.676-15.652,7.156-21.902-2.914c-3.756-6.051-6.375-13.063-8.143-19.991c-1.021-4.008,0.658-8.705,1.121-13.093"/>
	<path fill-rule="evenodd" clip-rule="evenodd" fill="#FFFFFF" d="M81.115,69.163c0.208,11.923,4.438,20.503,12.906,27.523
		c7.833,6.494,40.015,19.343,48.956,20.085C115.452,85.504,88.204,52.789,74.327,10.923c-1.965,34.121,18.305,59.048,36.295,85.018
		C96.596,91.813,89.599,80.366,81.115,69.163z"/>
	<path fill-rule="evenodd" clip-rule="evenodd" fill="#FFFFFF" d="M144.221,113.203c2.412,1.879,4.503,4.171,6.742,6.272
		c-3.56,1.148-6.174,0.741-8.752,0.173c-7.087-1.56-14.129-3.346-21.247-4.736c-5.694-1.111-7.038,2.198-6.471,7.1
		c0.913,7.903,9.007,14.941,17.83,13.878c7.682-0.925,15.285-3.239,22.623-5.803c2.271-0.794,3.826-4.267,5.229-6.782
		c2.297-4.123,4.202-8.466,6.469-13.123c-2.484-0.156-5.122-0.322-9.263-0.583c1.993-4.029,3.724-7.523,5.452-11.018
		c-0.263-0.538-0.526-1.076-0.789-1.614c-4.859,2.774-9.721,5.547-15.533,8.865c-0.525-1.808-1.843-4.214-1.748-6.563
		c0.111-2.707,1.471-5.363,2.459-8.602C132.425,98.654,131.947,103.64,144.221,113.203z M120.55,118.28
		c7.498,3.901,13.827,7.192,20.485,10.657C131.898,134.723,121.775,129.961,120.55,118.28z"/>
	<path fill-rule="evenodd" clip-rule="evenodd" fill="#FFFFFF" d="M28.179,58.995c-1.516,3.06-2.902,6.193-4.173,9.387
		c13.609,3.886,26.66,11.061,38.198,21.396c7.181,6.433,15.12,12.019,22.709,17.995c0.502-0.43,1.003-0.86,1.505-1.29
		c-7.856-9.27-9.675-20.032-9.085-31.629c0.225-4.44-0.558-9.111-1.804-13.41c-2.851-9.85-6.269-19.535-9.372-29.03
		c-6.612,4.155-7.98,8.786-6.272,20.013c0.689,4.524-0.071,9.268-0.171,13.912c-0.847,0.062-1.694,0.124-2.543,0.186
		c-5.032-8.765-8.81-18.671-15.45-25.976c-6.612-7.272-16.097-11.934-24.322-17.74c-0.604,0.47-1.207,0.94-1.81,1.41
		c2.177,4.035,4.227,8.144,6.565,12.083c2.295,3.863,5.294,7.354,7.229,11.372C31.276,51.602,32.031,56.267,28.179,58.995z"/>
</g>
</svg>