<?xml version="1.0" encoding="UTF-8"?>
<svg width="237px" height="237px" viewBox="0 0 490 490" version="1.1" xmlns="http://www.w3.org/2000/svg" xmlns:xlink="http://www.w3.org/1999/xlink">
    <!-- Generator: Sketch 3.6.1 (26313) - http://www.bohemiancoding.com/sketch -->
    <title>literature</title>
    <desc>Created with Sketch.</desc>
    <defs></defs>
    <g id="Page-1" stroke="none" stroke-width="1" fill="none" fill-rule="evenodd">
        <g id="literature" transform="translate(0.000000, -1.000000)" fill="#FFFFFF">
            <g id="Group">
                <path d="M487.483,358.878 C490.191,355.804 491.729,342.576 479.652,341.569 L74.721,341.569 C33.521,341.569 0,375.087 0,416.291 C0,457.484 33.521,491 74.721,491 L479.652,491 C493.933,489.39 490.15,476.635 487.381,473.58 C452.525,435.055 452.565,398.616 487.483,358.878 L487.483,358.878 Z M458.156,470.148 L74.721,470.148 C45.018,470.148 20.854,445.988 20.854,416.291 C20.854,386.592 45.018,362.421 74.721,362.421 L458.441,362.421 C434.298,398.606 434.196,434.708 458.156,470.148 L458.156,470.148 Z" id="Shape"></path>
                <path d="M10.348,320.714 L415.278,320.714 C456.478,320.714 490,287.196 490,246.003 C490,204.801 456.479,171.282 415.278,171.282 L188.749,171.282 L188.749,150.431 L479.652,150.431 C493.933,148.821 490.15,136.066 487.381,133.011 C452.525,94.485 452.566,58.046 487.483,18.309 C490.191,15.235 491.729,2.005 479.652,0.999 L74.721,0.999 C33.521,1 0,34.519 0,75.721 C0,116.915 33.521,150.432 74.721,150.432 L88.041,150.432 L88.041,171.283 L10.348,171.283 C-1.729,172.289 -0.191,185.517 2.517,188.592 C37.435,228.33 37.475,264.769 2.619,303.295 C-0.15,306.349 -3.933,319.104 10.348,320.714 L10.348,320.714 Z M74.721,129.58 C45.018,129.58 20.854,105.42 20.854,75.721 C20.854,46.023 45.018,21.853 74.721,21.853 L458.441,21.853 C434.298,58.037 434.196,94.139 458.156,129.581 L188.749,129.581 L188.749,75.716 C188.749,69.954 184.085,65.29 178.322,65.29 L98.468,65.29 C92.704,65.29 88.041,69.954 88.041,75.716 L88.041,129.58 L74.721,129.58 L74.721,129.58 Z M167.895,86.142 L167.895,216.422 L144.83,198.35 C142.936,196.873 140.665,196.131 138.395,196.131 C136.124,196.131 133.853,196.873 131.959,198.35 L108.895,216.422 L108.895,86.142 L167.895,86.142 L167.895,86.142 Z M88.041,192.134 L88.041,237.833 C87.437,246.907 94.339,255.792 104.903,246.039 L138.395,219.802 L171.886,246.039 C182.858,254.93 189.588,246.562 188.749,237.833 L188.749,192.134 L415.278,192.134 C444.981,192.134 469.145,216.305 469.145,246.003 C469.145,275.701 444.981,299.862 415.278,299.862 L31.844,299.862 C55.805,264.421 55.702,228.318 31.559,192.133 L88.041,192.133 L88.041,192.134 Z" id="Shape"></path>
            </g>
        </g>
    </g>
</svg>