<svg version="1.1" id="Layer_1" xmlns="http://www.w3.org/2000/svg" xmlns:xlink="http://www.w3.org/1999/xlink" x="0px" y="0px"
	 width="237.5px" height="237.5px" viewBox="0 0 237.5 237.5" enable-background="new 0 0 237.5 237.5" xml:space="preserve"> <!-- Created with Method Draw - http://github.com/duopixel/Method-Draw/ -->
 
 <g>
  <title>Layer 1</title>
  <path stroke="#000" id="svg_1" d="m92.950574,84.692137l-24.765935,-24.764449l24.761433,-24.764449l-12.729564,-12.737803l-24.765935,24.764449l-24.765935,-24.764449l-12.729564,12.737803l24.761433,24.764449l-24.765935,24.764449l12.738567,12.733302l24.761433,-24.764449l24.761433,24.764449" stroke-width="1.5" fill="#fff"/>
  <path stroke="#000" id="svg_3" d="m27.774991,161.291107l24.456261,0l0,-29.413613l25.087481,0l0,29.413613l24.456263,0l0,30.172783l-24.456263,0l0,29.41361l-25.087481,0l0,-29.41361l-24.456261,0l0,-30.172783z" fill-opacity="null" stroke-opacity="null" stroke-width="1.5" fill="#fff"/>
  <path id="svg_5" d="m131.344999,45.784476l86.000006,0l0,22.999997l-86.000006,0l0,-22.999997z" fill-opacity="null" stroke-opacity="null" stroke-width="1.5" stroke="#000" fill="#fff"/>
  <path id="svg_7" d="m177.279653,133.8125l0,0c6.948684,0 12.581709,5.373991 12.581709,12.003141c0,6.629155 -5.633023,12.003141 -12.581709,12.003141c-6.948692,0 -12.581709,-5.373981 -12.581709,-12.003141c0,-6.629152 5.633014,-12.003141 12.581709,-12.003141zm0,78.000006c-6.948692,0 -12.581709,-5.373986 -12.581709,-12.003143c0,-6.629149 5.633014,-12.003141 12.581709,-12.003141c6.948684,0 12.581709,5.373989 12.581709,12.003141c0,6.629157 -5.633023,12.003143 -12.581709,12.003143zm-36.999998,-51.003145l73.999993,0l0,24.006284l-73.999993,0l0,-24.006284z" fill-opacity="null" stroke-opacity="null" stroke-width="1.5" stroke="#000" fill="#fff"/>
 </g>
</svg>