<?xml version="1.0" encoding="utf-8"?>
<!-- Generator: Adobe Illustrator 16.0.0, SVG Export Plug-In . SVG Version: 6.00 Build 0)  -->
<!DOCTYPE svg PUBLIC "-//W3C//DTD SVG 1.1//EN" "http://www.w3.org/Graphics/SVG/1.1/DTD/svg11.dtd">
<svg version="1.1" id="Layer_1" xmlns="http://www.w3.org/2000/svg" xmlns:xlink="http://www.w3.org/1999/xlink" x="0px" y="0px"
	 width="237.5px" height="237.5px" viewBox="0 0 237.5 237.5" enable-background="new 0 0 237.5 237.5" xml:space="preserve">
<g>
	<path fill="#000000" d="M95.401,30.853C46.373,31.318,7.005,71.444,7.472,120.466c0.472,49.025,40.586,88.39,89.613,87.919
		c32.426-0.308,60.61-17.975,75.868-44.083l-78.204-44.16l77.779-45.902C156.888,48.01,128.141,30.543,95.401,30.853z"/>
	<path fill="#000000" d="M193.828,115.286l22.544-0.218l9.97,0.066c-0.043-1.365-0.107-2.736-0.212-4.097l-32.362,3.146
		C193.792,114.553,193.816,114.916,193.828,115.286z"/>
	<path fill="#000000" d="M191.547,100.745l31.646-7.462c-0.338-1.293-0.701-2.569-1.1-3.843l-30.841,10.287
		C191.361,100.062,191.453,100.408,191.547,100.745z"/>
	<path fill="#000000" d="M181.391,156.742l25.574,20.068c0.799-1.063,1.57-2.145,2.319-3.241l-27.268-17.706
		C181.807,156.16,181.599,156.448,181.391,156.742z"/>
	<path fill="#000000" d="M192.857,129.938l31.76,6.939c0.251-1.307,0.477-2.624,0.681-3.936l-32.267-4.058
		C192.974,129.239,192.914,129.584,192.857,129.938z"/>
	<path fill="#000000" d="M188.648,143.978l29.397,13.874c0.542-1.213,1.053-2.444,1.543-3.68l-30.533-11.183
		C188.917,143.32,188.787,143.649,188.648,143.978z"/>
	<path fill="#000000" d="M215.253,72.772c-0.624-1.177-1.261-2.346-1.924-3.496l-27.764,16.922c0.174,0.312,0.351,0.619,0.516,0.938
		L215.253,72.772z"/>
</g>
</svg>
