<?xml version="1.0" encoding="utf-8"?>
<!-- Generator: Adobe Illustrator 16.0.0, SVG Export Plug-In . SVG Version: 6.00 Build 0)  -->
<!DOCTYPE svg PUBLIC "-//W3C//DTD SVG 1.1//EN" "http://www.w3.org/Graphics/SVG/1.1/DTD/svg11.dtd">
<svg version="1.1" id="Layer_1" xmlns="http://www.w3.org/2000/svg" xmlns:xlink="http://www.w3.org/1999/xlink" x="0px" y="0px"
	 width="237.5px" height="237.5px" viewBox="0 0 237.5 237.5" enable-background="new 0 0 237.5 237.5" xml:space="preserve">
<path fill="#000000" d="M116.124,10.34C56.376,10.34,7.942,58.774,7.942,118.521c0,59.742,48.434,108.178,108.181,108.178
	c59.75,0,108.185-48.436,108.185-108.178C224.308,58.774,175.874,10.34,116.124,10.34z M210.269,89.083
	c1.457,4.667,2.576,9.497,3.319,14.354l-3.632,0.555c-0.717-4.672-1.79-9.32-3.197-13.811L210.269,89.083z M123.181,20.156
	c4.899,0.347,9.808,1.062,14.576,2.13l-0.803,3.585c-4.591-1.027-9.314-1.717-14.033-2.05L123.181,20.156z M108.458,20.204
	l0.279,3.664c-4.716,0.363-9.432,1.082-14.019,2.14l-0.824-3.582C98.661,21.329,103.56,20.58,108.458,20.204z M79.827,26.802
	l1.356,3.416c-4.389,1.738-8.677,3.824-12.747,6.195l-1.851-3.176C70.814,30.774,75.269,28.609,79.827,26.802z M34.514,63.155
	l3.037,2.067c-2.655,3.91-5.039,8.048-7.074,12.294l-3.315-1.588C29.278,71.516,31.751,67.219,34.514,63.155z M21.802,89.66
	l3.517,1.073c-1.377,4.502-2.425,9.156-3.11,13.833l-3.641-0.536C19.287,99.172,20.375,94.336,21.802,89.66z M17.518,118.719
	l3.674-0.007c0.012,4.74,0.374,9.497,1.073,14.146l-3.631,0.548C17.905,128.578,17.529,123.639,17.518,118.719z M27.33,161.468
	c-2.139-4.424-3.962-9.033-5.409-13.705l3.51-1.088c1.393,4.495,3.147,8.936,5.208,13.19L27.33,161.468z M43.936,185.697
	c-3.342-3.59-6.438-7.457-9.206-11.494l3.029-2.078c2.666,3.888,5.649,7.612,8.868,11.065L43.936,185.697z M46.375,54.114
	l-2.699-2.494c3.318-3.591,6.94-6.971,10.767-10.046l2.304,2.865C53.061,47.4,49.573,50.655,46.375,54.114z M66.925,203.995
	c-4.242-2.445-8.336-5.237-12.178-8.294l2.291-2.873c3.696,2.944,7.641,5.628,11.725,7.984L66.925,203.995z M94.296,214.71
	c-4.784-1.084-9.527-2.538-14.097-4.326l1.342-3.422c4.396,1.718,8.963,3.121,13.566,4.157L94.296,214.71z M116.127,217.131
	c-2.409,0-4.847-0.088-7.255-0.263l0.264-3.668c4.74,0.345,9.549,0.341,14.187-0.015l0.271,3.666
	C121.146,217.034,118.633,217.128,116.127,217.131z M104.719,167.084v-16.235h16.152v16.235H104.719z M121.044,128.114
	c-0.115,1.538-0.173,3.247-0.173,5.129v6.409h-16.152v-6.409c0-10.085,2.479-17.575,7.435-22.478
	c5.355-5.297,9.029-10.737,11.027-16.321c1.137-3.249,1.707-6.667,1.707-10.256c0-3.703-0.827-6.61-2.479-8.717
	c-1.825-2.45-4.473-3.447-7.947-2.991c-3.248,0.397-5.583,2.649-7.01,6.751c-0.627,1.709-1.055,3.704-1.28,5.982l-15.554-2.735
	c0.566-6.666,2.789-12.277,6.664-16.835c2.62-3.077,6.266-5.299,10.939-6.665c2.45-0.74,5.272-1.111,8.462-1.111
	c8.66,0,15.21,3.106,19.655,9.315c3.531,4.9,5.297,10.655,5.297,17.264c0,11.053-5.006,21.566-15.014,31.535
	C123.129,119.457,121.268,123.499,121.044,128.114z M138.162,214.657l-0.818-3.58c4.598-1.049,9.155-2.455,13.547-4.185l1.349,3.415
	C147.675,212.105,142.938,213.572,138.162,214.657z M150.525,30.007l1.335-3.424c4.567,1.775,9.037,3.913,13.299,6.358l-1.83,3.187
	C159.23,33.775,154.922,31.716,150.525,30.007z M165.497,203.906l-1.845-3.179c4.084-2.366,8.02-5.06,11.701-8.004l2.299,2.868
	C173.825,198.649,169.734,201.446,165.497,203.906z M175.068,44.091l2.28-2.878c3.84,3.047,7.483,6.407,10.828,9.985l-2.685,2.508
	C182.272,50.261,178.763,47.025,175.068,44.091z M188.439,185.565l-2.694-2.498c3.21-3.46,6.187-7.191,8.845-11.09l3.036,2.074
	C194.862,178.098,191.772,181.972,188.439,185.565z M194.383,64.757l3.029-2.085c2.779,4.038,5.279,8.315,7.42,12.718L201.531,77
	C199.463,72.762,197.063,68.642,194.383,64.757z M204.996,161.295l-3.309-1.598c2.055-4.257,3.799-8.698,5.188-13.206l3.51,1.082
	C208.94,152.256,207.13,156.871,204.996,161.295z M213.649,133.208l-3.631-0.545c0.693-4.639,1.046-9.396,1.046-14.143v-0.396h3.673
	v0.396C214.737,123.447,214.373,128.389,213.649,133.208z"/>
</svg>
